<svg fill="white" class="img-fluid" xmlns="http://www.w3.org/2000/svg" viewBox="0 0 610.8 120" cursorshover="true"> <path class="st0" d="M150.2,80.1c0-24.3,17.5-41.1,41.2-41.1c9,0,18,2.3,25,6.8v17.7c-6.5-5.1-15-8.1-23.2-8.1 c-14.7,0-24.5,9.5-24.5,24.3c0,14.9,9.5,23.7,24.2,23.7c8.4,0,16.6-2.6,24-8.1v17.7c-7.3,4.5-16.4,6.8-25.4,6.8 C166.5,119.9,150.2,103.8,150.2,80.1 M234.5,60.8c0-35.7,25.3-60.8,60.9-60.8c13.3,0,26.4,3.4,36.7,9.9v20.1 c-10.1-7.9-23.2-12.4-36-12.4c-24.8,0-42,17.7-42,43.2c0,25.6,16.4,41.4,41.9,41.4c12.9,0,26.4-4.5,36.6-12.4v20.2 c-10.4,6.5-23.6,9.9-36.9,9.9C258.9,120,234.5,96.4,234.5,60.8 M409.7,79.5c0-14.4-9.1-24.3-22.3-24.3c-13.2,0-22.3,9.9-22.3,24.3 c0,14.4,9.1,24.3,22.3,24.3C400.5,103.8,409.7,93.9,409.7,79.5 M411.1,41.5h16.9v76.6h-16.9v-10.9c-5.6,8.2-14.6,12.7-26,12.7 c-22.2,0-38.4-17.1-38.4-40.1c0-23.1,16.4-40.8,38.9-40.8c10.9,0,20.1,4.7,25.6,12.4C411.1,51.5,411.1,41.5,411.1,41.5z M519.8,70.7 v47.4h-18.1V73.9c0-11.8-5.7-18.8-15.3-18.8c-12.4,0-19.8,10.4-19.8,27.9v35h-18.1V41.5h17.2v9.9c5.1-8.1,13.5-12.4,24.3-12.4 C507.8,39.1,519.8,51.8,519.8,70.7 M610.8,70.7v47.4h-18.1V73.9c0-11.8-5.7-18.8-15.3-18.8c-12.4,0-19.8,10.4-19.8,27.9v35h-18.1 V41.5h17.2v9.9c5.1-8.1,13.5-12.4,24.3-12.4C598.7,39.1,610.8,51.8,610.8,70.7 M140.1,118.1h-19.8l-14.1-65.7l-36.1,64.2L33.9,52.4 l-14.1,65.7H0L25.4,1.9l44.6,79.4l44.6-79.4L140.1,118.1L140.1,118.1z" cursorshover="true"></path> </svg>